<?xml version="1.0" standalone="no"?>
<!DOCTYPE svg PUBLIC "-//W3C//DTD SVG 20010904//EN"
 "http://www.w3.org/TR/2001/REC-SVG-20010904/DTD/svg10.dtd">
<svg version="1.0" xmlns="http://www.w3.org/2000/svg"
 width="360.000000pt" height="360.000000pt" viewBox="0 0 360.000000 360.000000"
 preserveAspectRatio="xMidYMid meet">

<g transform="translate(0.000000,360.000000) scale(0.100000,-0.100000)"
fill="#000000" stroke="none">
<path d="M1555 3361 c-136 -37 -232 -86 -336 -172 -81 -68 -141 -146 -195
-254 -65 -132 -84 -219 -84 -387 l0 -138 159 0 159 0 5 133 c3 102 9 146 27
195 46 129 163 247 292 292 79 28 268 39 361 20 191 -37 347 -190 386 -378 7
-32 11 -178 11 -372 l0 -320 -742 -2 c-737 -3 -743 -3 -790 -25 -57 -26 -134
-95 -158 -143 -39 -77 -42 -123 -38 -730 l3 -585 29 -58 c35 -68 98 -130 164
-160 l47 -22 945 0 945 0 47 22 c66 30 133 96 165 162 l28 56 0 615 c0 581 -1
618 -19 664 -37 96 -132 174 -241 199 l-60 14 -5 374 -5 374 -32 91 c-46 131
-105 226 -199 319 -94 94 -191 154 -318 198 -88 30 -97 31 -286 34 -166 2
-206 0 -265 -16z m310 -1932 c25 -7 58 -29 86 -58 38 -37 49 -57 58 -101 16
-76 -4 -141 -59 -195 l-40 -39 0 -127 c0 -139 -8 -175 -47 -203 -41 -30 -99
-25 -136 13 l-32 31 -3 142 -4 142 -43 48 c-80 89 -81 201 -1 285 62 66 134
86 221 62z"/>
</g>
</svg>
