<?xml version="1.0" standalone="no"?>
<!DOCTYPE svg PUBLIC "-//W3C//DTD SVG 20010904//EN"
 "http://www.w3.org/TR/2001/REC-SVG-20010904/DTD/svg10.dtd">
<svg version="1.0" xmlns="http://www.w3.org/2000/svg"
 width="360.000000pt" height="360.000000pt" viewBox="0 0 360.000000 360.000000"
 preserveAspectRatio="xMidYMid meet">

<g transform="translate(0.000000,360.000000) scale(0.100000,-0.100000)"
fill="#000000" stroke="none">
<path d="M1639 2562 c-155 -41 -283 -162 -347 -326 -11 -28 -17 -92 -21 -206
l-6 -164 -34 -7 c-39 -8 -76 -34 -105 -73 -20 -26 -21 -43 -24 -318 -3 -323 1
-362 54 -466 39 -80 134 -176 210 -215 108 -54 141 -59 432 -55 266 3 267 4
333 31 131 55 240 172 289 308 21 59 23 84 28 344 3 192 0 294 -7 323 -16 57
-70 110 -121 118 l-40 7 0 126 c0 155 -18 242 -66 329 -114 203 -349 303 -575
244z m272 -184 c72 -33 134 -95 167 -167 24 -51 27 -70 30 -203 l4 -147 -337
-1 -337 0 4 157 c4 176 12 203 84 283 98 108 253 140 385 78z m-56 -791 c91
-50 110 -166 41 -253 -33 -44 -36 -52 -36 -114 0 -91 -15 -129 -56 -146 -23
-10 -41 -11 -58 -5 -42 17 -56 48 -56 132 0 72 -2 78 -36 122 -62 79 -64 160
-7 228 52 61 137 76 208 36z"/>
</g>
</svg>
